# xmcd
#
# Track frame offsets: 
#        150
#        17791
#        35620
#        50368
#        62304
#        75689
#        83843
#        102302
#        110189
#        122313
#        138175
#        152881
#        183709
#        193954
#        212602
#        226929
#        239670
#        248729
#        267143
#        283442
#        299066
#        313300
#
# Disc length: 4442 seconds
#
# Revision: 0
# Processed by: cddbd v1.5.2PL0 Copyright (c) Steve Scherf et al.
# Submitted via: ExactAudioCopy v0.95b4
#
DISCID=4c115816
DTITLE=Various Artist - Nekoncici cesta
DYEAR=2013
DGENRE=Trampske
TTITLE0=Letokruhy
TTITLE1=Ranni priboj
TTITLE2=Pada laska
TTITLE3=Sedmnact dnu
TTITLE4=Stara kobyla
TTITLE5=Bila, bila
TTITLE6=Brehy me duse
TTITLE7=Hejno vran
TTITLE8=Heny
TTITLE9=Hobo
TTITLE10=Bejt starej chlap
TTITLE11=Made in Pade
TTITLE12=Pisen o trave a noci
TTITLE13=(Osamely mesto) Tereza
TTITLE14=Pozdni jaro
TTITLE15=Smutna nedele
TTITLE16=Stastnej tulak
TTITLE17=Odchazet za svitani
TTITLE18=Tak uz mi ma holka mava
TTITLE19=Tak ahoj
TTITLE20=W.R. Cesty piscity
TTITLE21=W.R. Prokleta vune hor
EXTD=
EXTT0=
EXTT1=
EXTT2=
EXTT3=
EXTT4=
EXTT5=
EXTT6=
EXTT7=
EXTT8=
EXTT9=
EXTT10=
EXTT11=
EXTT12=
EXTT13=
EXTT14=
EXTT15=
EXTT16=
EXTT17=
EXTT18=
EXTT19=
EXTT20=
EXTT21=
PLAYORDER=
